# xmcd
#
# Track frame offsets:
#	150
#	15734
#	30146
#	44011
#	61523
#	78592
#	92541
#	105802
#	120384
#	135733
#	151108
#	163414
#
# Disc length: 2375 seconds
#
# Revision: 1
# Processed by: cddbd v1.5.1PL0 Copyright (c) Steve Scherf et al.
# Submitted via: audiograbber 1.83.01
#
DISCID=8109450c
DTITLE=José Arimatéa - Choro Suave
DYEAR=2004
DGENRE=Brasil Choro
TTITLE0=Lua Azul
TTITLE1=Dialogando
TTITLE2=Chorinho Apaixonado
TTITLE3=1° de Janeiro do Ano 2000
TTITLE4=Moda Antiga
TTITLE5=Que Mexidinho Bom
TTITLE6=O Baronêz
TTITLE7=Choro Suave
TTITLE8=Tocando e Sentido
TTITLE9=Polemico
TTITLE10=Esse Chorinho Diferente
TTITLE11=Influência de Garoto
EXTD=
EXTT0=
EXTT1=
EXTT2=
EXTT3=
EXTT4=
EXTT5=
EXTT6=
EXTT7=
EXTT8=
EXTT9=
EXTT10=
EXTT11=
PLAYORDER=
